<svg width="100" height="16" fill="none" xmlns="http://www.w3.org/2000/svg"><g clip-path="url('#clip0_480_4495')" fill="#FFE550"><path d="M7.82.519c.296-.692 1.305-.692 1.602 0L11.17 4.6c.125.291.407.49.731.516l4.54.353c.77.06 1.081.991.495 1.479l-3.459 2.876a.828.828 0 0 0-.28.835l1.057 4.3c.18.728-.637 1.304-1.296.914l-3.886-2.305a.89.89 0 0 0-.904 0l-3.887 2.305c-.659.39-1.475-.186-1.296-.914l1.057-4.3a.828.828 0 0 0-.28-.835L.304 6.949C-.282 6.46.03 5.529.8 5.469l4.54-.352a.866.866 0 0 0 .732-.516L7.82.519ZM28.51.519c.296-.692 1.305-.692 1.601 0l1.75 4.082c.124.291.407.49.731.516l4.54.353c.769.06 1.08.991.495 1.479l-3.459 2.876a.828.828 0 0 0-.28.835l1.057 4.3c.18.728-.637 1.304-1.296.914l-3.886-2.305a.89.89 0 0 0-.905 0l-3.886 2.305c-.659.39-1.475-.186-1.296-.914l1.056-4.3a.828.828 0 0 0-.28-.835l-3.458-2.876c-.586-.488-.274-1.42.495-1.48l4.54-.352a.866.866 0 0 0 .732-.516L28.509.519ZM49.199.519c.296-.692 1.306-.692 1.602 0L52.55 4.6c.125.291.407.49.732.516l4.54.353c.768.06 1.08.991.494 1.479l-3.459 2.876a.828.828 0 0 0-.28.835l1.058 4.3c.179.728-.638 1.304-1.296.914l-3.887-2.305a.89.89 0 0 0-.904 0l-3.887 2.305c-.659.39-1.475-.186-1.296-.914l1.057-4.3a.828.828 0 0 0-.28-.835l-3.459-2.876c-.586-.488-.274-1.42.495-1.48l4.54-.352a.866.866 0 0 0 .732-.516L49.199.519ZM69.889.519c.296-.692 1.305-.692 1.602 0L73.24 4.6c.125.291.407.49.731.516l4.54.353c.769.06 1.08.991.495 1.479l-3.459 2.876a.828.828 0 0 0-.28.835l1.057 4.3c.18.728-.637 1.304-1.296.914l-3.886-2.305a.89.89 0 0 0-.905 0l-3.886 2.305c-.659.39-1.475-.186-1.296-.914l1.056-4.3a.828.828 0 0 0-.279-.835l-3.459-2.876c-.586-.488-.274-1.42.495-1.48l4.54-.352a.866.866 0 0 0 .732-.516L69.889.519ZM90.578.519c.297-.692 1.306-.692 1.602 0L93.93 4.6c.124.291.407.49.73.516l4.54.353c.77.06 1.082.991.496 1.479l-3.46 2.876a.828.828 0 0 0-.279.835l1.057 4.3c.18.728-.637 1.304-1.296.914l-3.887-2.305a.89.89 0 0 0-.904 0l-3.887 2.305c-.658.39-1.475-.186-1.296-.914l1.057-4.3a.828.828 0 0 0-.28-.835l-3.458-2.876c-.586-.488-.274-1.42.495-1.48l4.54-.352a.866.866 0 0 0 .731-.516L90.58.519Z"/></g><defs><clipPath id="clip0_480_4495"><path fill="#fff" d="M0 0h100v16H0z"/></clipPath></defs></svg>