<svg width="18" height="16" viewBox="0 0 18 16" fill="none" xmlns="http://www.w3.org/2000/svg">
<path d="M8.19889 0.51869C8.49522 -0.172898 9.5045 -0.172897 9.80083 0.518692L11.5498 4.60057C11.6748 4.89213 11.9572 5.09134 12.2815 5.11657L16.8211 5.46986C17.5903 5.52972 17.9022 6.46147 17.3162 6.94875L13.8574 9.82474C13.6104 10.0302 13.5025 10.3526 13.5779 10.6597L14.6346 14.9599C14.8137 15.6885 13.9972 16.2644 13.3387 15.874L9.45204 13.5695C9.17443 13.4049 8.82529 13.4049 8.54768 13.5695L4.66105 15.874C4.00253 16.2644 3.18601 15.6885 3.36505 14.9599L4.42176 10.6597C4.49724 10.3526 4.38935 10.0302 4.14231 9.82474L0.683515 6.94875C0.0974965 6.46147 0.409381 5.52972 1.17854 5.46986L5.71826 5.11657C6.04252 5.09134 6.32499 4.89213 6.44991 4.60057L8.19889 0.51869Z" fill="#FFE550"/>
</svg>
