<svg width="100" height="16" viewBox="0 0 100 16" fill="none" xmlns="http://www.w3.org/2000/svg">
<g clip-path="url(#clip0_480_4495)">
<path d="M7.81974 0.51869C8.11607 -0.172898 9.12535 -0.172897 9.42168 0.518692L11.1706 4.60057C11.2956 4.89213 11.5781 5.09134 11.9023 5.11657L16.442 5.46986C17.2111 5.52972 17.523 6.46147 16.937 6.94875L13.4783 9.82474C13.2313 10.0302 13.1233 10.3526 13.1988 10.6597L14.2555 14.9599C14.4345 15.6885 13.618 16.2644 12.9595 15.874L9.07289 13.5695C8.79528 13.4049 8.44614 13.4049 8.16853 13.5695L4.2819 15.874C3.62338 16.2644 2.80686 15.6885 2.9859 14.9599L4.04261 10.6597C4.11809 10.3526 4.0102 10.0302 3.76316 9.82474L0.304365 6.94875C-0.281654 6.46147 0.030231 5.52972 0.799391 5.46986L5.33911 5.11657C5.66337 5.09134 5.94584 4.89213 6.07076 4.60057L7.81974 0.51869Z" fill="#FFE550"/>
<path d="M28.5094 0.51869C28.8058 -0.172898 29.815 -0.172897 30.1114 0.518692L31.8603 4.60057C31.9853 4.89213 32.2678 5.09134 32.592 5.11657L37.1317 5.46986C37.9008 5.52972 38.2127 6.46147 37.6267 6.94875L34.168 9.82474C33.921 10.0302 33.813 10.3526 33.8885 10.6597L34.9452 14.9599C35.1242 15.6885 34.3077 16.2644 33.6492 15.874L29.7626 13.5695C29.485 13.4049 29.1358 13.4049 28.8582 13.5695L24.9716 15.874C24.3131 16.2644 23.4966 15.6885 23.6756 14.9599L24.7323 10.6597C24.8078 10.3526 24.6999 10.0302 24.4529 9.82474L20.9941 6.94875C20.408 6.46147 20.7199 5.52972 21.4891 5.46986L26.0288 5.11657C26.3531 5.09134 26.6355 4.89213 26.7605 4.60057L28.5094 0.51869Z" fill="#FFE550"/>
<path d="M49.1989 0.51869C49.4952 -0.172898 50.5045 -0.172897 50.8008 0.518692L52.5498 4.60057C52.6748 4.89213 52.9572 5.09134 53.2815 5.11657L57.8211 5.46986C58.5903 5.52972 58.9022 6.46147 58.3162 6.94875L54.8574 9.82474C54.6104 10.0302 54.5025 10.3526 54.5779 10.6597L55.6346 14.9599C55.8137 15.6885 54.9972 16.2644 54.3387 15.874L50.452 13.5695C50.1744 13.4049 49.8253 13.4049 49.5477 13.5695L45.661 15.874C45.0025 16.2644 44.186 15.6885 44.365 14.9599L45.4218 10.6597C45.4972 10.3526 45.3894 10.0302 45.1423 9.82474L41.6835 6.94875C41.0975 6.46147 41.4094 5.52972 42.1785 5.46986L46.7183 5.11657C47.0425 5.09134 47.325 4.89213 47.4499 4.60057L49.1989 0.51869Z" fill="#FFE550"/>
<path d="M69.8886 0.51869C70.1849 -0.172898 71.1942 -0.172897 71.4905 0.518692L73.2395 4.60057C73.3645 4.89213 73.6469 5.09134 73.9712 5.11657L78.5108 5.46986C79.28 5.52972 79.5919 6.46147 79.0059 6.94875L75.5471 9.82474C75.3001 10.0302 75.1922 10.3526 75.2676 10.6597L76.3243 14.9599C76.5034 15.6885 75.6869 16.2644 75.0284 15.874L71.1417 13.5695C70.8641 13.4049 70.515 13.4049 70.2374 13.5695L66.3507 15.874C65.6922 16.2644 64.8757 15.6885 65.0547 14.9599L66.1115 10.6597C66.1869 10.3526 66.079 10.0302 65.832 9.82474L62.3732 6.94875C61.7872 6.46147 62.0991 5.52972 62.8682 5.46986L67.408 5.11657C67.7322 5.09134 68.0147 4.89213 68.1396 4.60057L69.8886 0.51869Z" fill="#FFE550"/>
<path d="M90.5783 0.51869C90.8746 -0.172898 91.8839 -0.172897 92.1802 0.518692L93.9292 4.60057C94.0542 4.89213 94.3366 5.09134 94.6609 5.11657L99.2005 5.46986C99.9697 5.52972 100.282 6.46147 99.6956 6.94876L96.2368 9.82474C95.9898 10.0302 95.8818 10.3526 95.9573 10.6597L97.014 14.9599C97.1931 15.6885 96.3766 16.2644 95.7181 15.874L91.8314 13.5695C91.5538 13.4049 91.2047 13.4049 90.9271 13.5695L87.0404 15.874C86.3819 16.2644 85.5654 15.6885 85.7444 14.9599L86.8012 10.6597C86.8766 10.3526 86.7687 10.0302 86.5217 9.82474L83.0629 6.94876C82.4769 6.46147 82.7888 5.52972 83.5579 5.46986L88.0977 5.11657C88.4219 5.09134 88.7044 4.89213 88.8293 4.60057L90.5783 0.51869Z" fill="#FFE550"/>
</g>
<defs>
<clipPath id="clip0_480_4495">
<rect width="100" height="16" fill="white"/>
</clipPath>
</defs>
</svg>
